<?xml version="1.0" encoding="UTF-8"?>
<svg version="1.1" xmlns="http://www.w3.org/2000/svg" width="961" height="682">
<path d="M0 0 C0.9861026 -0.00511093 1.9722052 -0.01022186 2.9881897 -0.01548767 C6.23828244 -0.02935468 9.48816249 -0.02842929 12.73828125 -0.02612305 C15.00219806 -0.03001108 17.26611415 -0.03434597 19.5300293 -0.03910828 C24.27102017 -0.04656391 29.01193657 -0.04628358 33.75292969 -0.04101562 C39.8258782 -0.03521675 45.89852214 -0.05216549 51.97142029 -0.0753603 C56.64515971 -0.09009564 61.3188257 -0.09096968 65.99258423 -0.08785057 C68.23166508 -0.08836371 70.47075005 -0.09360006 72.70980835 -0.10366249 C75.84059435 -0.11600774 78.97078592 -0.10924675 82.1015625 -0.09765625 C83.0243399 -0.10529999 83.94711731 -0.11294373 84.89785767 -0.12081909 C90.03038358 -0.07885095 93.61910376 0.39050732 98.05078125 3.2746582 C100.33540621 6.05904487 101.15715709 7.9979989 100.85499573 11.62435913 C99.2372254 20.83586459 97.12315446 29.90772402 94.953125 39.0012207 C94.55453773 40.68315176 94.15623238 42.36514966 93.75819397 44.04721069 C92.92943082 47.5456635 92.09797198 51.04346041 91.2644043 54.54077148 C90.19510542 59.02766561 89.13163841 63.51591757 88.070014 68.00463295 C87.25096988 71.46566175 86.42942656 74.92609332 85.60705757 78.38633347 C85.2136788 80.04242889 84.82095895 81.69868097 84.42890739 83.35509109 C83.8833759 85.65781459 83.33461439 87.95974373 82.78491211 90.26147461 C82.62333618 90.94608765 82.46176025 91.63070068 82.29528809 92.33605957 C81.16518627 97.04584816 81.16518627 97.04584816 80.05078125 99.2746582 C80.9631958 98.84040527 81.87561035 98.40615234 82.81567383 97.95874023 C91.6874897 93.76161139 100.63747558 89.82945647 109.73828125 86.1496582 C110.41075897 85.87697113 111.08323669 85.60428406 111.77609253 85.32333374 C128.68913707 78.48349774 145.81328131 72.24449805 163.05078125 66.2746582 C163.72453796 66.04091492 164.39829468 65.80717163 165.09246826 65.56634521 C235.31619238 41.2746582 235.31619238 41.2746582 263.05078125 41.2746582 C263.293125 40.05391602 263.53546875 38.83317383 263.78515625 37.57543945 C269.58314335 8.86034548 269.58314335 8.86034548 276.05078125 3.2746582 C283.80747108 -0.73782886 291.96036789 -0.12656366 300.47265625 -0.06591797 C302.13883957 -0.06507088 303.805024 -0.06554844 305.47120667 -0.06724548 C309.97688661 -0.06810365 314.48232532 -0.05050686 318.98794937 -0.02952361 C323.70313534 -0.01072701 328.41832727 -0.00900402 333.13354492 -0.00544739 C342.0546138 0.00386432 350.97557195 0.02846626 359.89659214 0.05860108 C370.05618179 0.09217232 380.21577683 0.10863795 390.37540817 0.12368739 C411.26726092 0.15501659 432.1590141 0.20776007 453.05078125 0.2746582 C452.72078125 0.9346582 452.39078125 1.5946582 452.05078125 2.2746582 C449.57159123 2.88913229 447.11717628 3.40895756 444.61328125 3.8996582 C425.17178478 8.14557354 404.5336364 18.38810651 393.05078125 35.2746582 C395.06220323 37.28608019 398.92807218 36.94474707 401.6953125 37.25512695 C403.32480349 37.44750833 404.95419412 37.64074115 406.58349609 37.8347168 C407.44465027 37.93645203 408.30580444 38.03818726 409.1930542 38.14300537 C466.93437621 45.04440592 529.14350339 61.35043268 574.05078125 100.2746582 C574.90285156 101.00426758 575.75492188 101.73387695 576.6328125 102.4855957 C595.28571557 118.81763065 607.36199672 138.2130841 613.05078125 162.2746582 C613.21449219 162.94062012 613.37820313 163.60658203 613.546875 164.29272461 C618.57403364 185.58024864 617.93468407 209.26211121 612.05078125 230.2746582 C611.87417969 230.92853516 611.69757812 231.58241211 611.515625 232.25610352 C605.04059108 255.60219804 591.73281875 277.00933933 576.05078125 295.2746582 C575.220625 296.28657227 574.39046875 297.29848633 573.53515625 298.34106445 C562.73248649 311.39657604 550.83748171 323.91310361 537.46484375 334.35668945 C535.00493635 336.3110819 532.72430568 338.38372491 530.42578125 340.5246582 C513.2026428 356.17217831 493.25906138 369.21616803 474.05078125 382.2746582 C473.39078125 381.9446582 472.73078125 381.6146582 472.05078125 381.2746582 C477.35138349 376.36365535 482.65226389 371.53497808 488.30078125 367.0246582 C493.6768743 362.68984573 498.69018745 358.02598055 503.70947266 353.28955078 C506.81242682 350.36171855 509.92060959 347.47182805 513.17578125 344.7121582 C521.77522216 337.2981982 529.77109765 328.97718905 537.05078125 320.2746582 C537.78296875 319.43161133 538.51515625 318.58856445 539.26953125 317.7199707 C565.40099558 287.20569748 583.43077019 250.29747828 581.05078125 209.2746582 C578.90487014 182.6163933 573.34876593 159.17893651 556.05078125 138.2746582 C555.40367187 137.47543945 554.7565625 136.6762207 554.08984375 135.8527832 C549.03030405 129.86394029 543.2354607 125.06279713 537.05078125 120.2746582 C536.11234375 119.5321582 535.17390625 118.7896582 534.20703125 118.0246582 C526.52449221 112.07688604 518.48233717 107.06336301 510.05078125 102.2746582 C509.42671387 101.91404297 508.80264648 101.55342773 508.15966797 101.18188477 C472.16502747 80.52602765 430.27416815 69.51473417 389.375 63.7824707 C386.05078125 63.2746582 386.05078125 63.2746582 383.05078125 62.2746582 C382.82747131 63.37091019 382.60416138 64.46716217 382.37408447 65.59663391 C379.6554431 78.79986337 376.57333826 91.90229198 373.41015625 105.00512695 C372.8775536 107.21993996 372.34518905 109.43481023 371.81304932 111.6497345 C370.42793849 117.41222177 369.0396466 123.17393783 367.65063477 128.93548584 C366.22736428 134.84169038 364.80718099 140.74863714 363.38671875 146.65551758 C360.61105211 158.19594949 357.83201606 169.73556705 355.05078125 181.2746582 C355.74100435 181.27189282 356.43122746 181.26912745 357.14236641 181.26627827 C373.94334168 181.20000169 390.7442755 181.1503695 407.54535103 181.11922169 C415.67025576 181.10375816 423.79507318 181.0826785 431.91992188 181.04833984 C439.00221563 181.0184217 446.08444614 180.99907946 453.16680133 180.99239272 C456.9162643 180.98848453 460.66554638 180.9793106 464.41495132 180.95746803 C468.60239916 180.93327187 472.78953325 180.93268976 476.97705078 180.93408203 C478.21782883 180.9232962 479.45860687 180.91251038 480.73698425 180.90139771 C491.33176542 180.93958541 491.33176542 180.93958541 496.05078125 184.2746582 C498.4152347 187.15633584 499.16325038 189.09968668 498.80581474 192.83383751 C497.53073317 199.96052009 496.04511466 207.00399438 494.35205078 214.04272461 C494.08818069 215.1540979 493.82431061 216.26547119 493.55244446 217.41052246 C492.6833479 221.06668484 491.80851716 224.72144872 490.93359375 228.3762207 C490.31467148 230.97447799 489.69606279 233.57280805 489.07785034 236.17123413 C487.61156664 242.33109893 486.14110199 248.48995776 484.66915023 254.64847028 C483.52301297 259.44448438 482.37890041 264.24097719 481.23632812 269.0378418 C480.99814499 270.03778321 480.99814499 270.03778321 480.75515008 271.05792546 C480.11576579 273.74236719 479.47644383 276.42682375 478.83718443 279.11129522 C477.09359652 286.43264459 475.34704876 293.75326117 473.59185791 301.07183838 C470.841666 312.54356276 468.099564 324.01639871 465.44397926 335.5104847 C464.36415969 340.1801935 463.27322615 344.84727159 462.18120956 349.51414108 C461.67849125 351.67715976 461.18138999 353.84149282 460.69034195 356.0071907 C460.01853161 358.9688263 459.32758958 361.92538914 458.63232422 364.8815918 C458.44371197 365.73774456 458.25509972 366.59389732 458.06077194 367.47599411 C456.49683214 373.99175771 454.05555859 379.07604064 448.48828125 383.1496582 C444.85722728 384.82552927 441.71694719 385.39936875 437.73109436 385.40837097 C436.87457779 385.41263596 436.01806122 385.41690094 435.1355896 385.42129517 C434.2040506 385.42084198 433.2725116 385.42038879 432.31274414 385.41992188 C431.3253273 385.42328049 430.33791046 385.4266391 429.3205719 385.43009949 C426.05484766 385.43960245 422.78917471 385.4415522 419.5234375 385.44262695 C417.25426716 385.4458397 414.98509703 385.44920378 412.71592712 385.45271301 C407.95880656 385.45870244 403.20170415 385.46055307 398.44458008 385.45996094 C392.34688382 385.45985926 386.24930385 385.47351815 380.15163517 385.49073315 C375.46507735 385.50184685 370.77854772 385.50388035 366.09197807 385.50335121 C363.84369951 385.50453202 361.59542023 385.50895943 359.34715462 385.51668358 C356.2040909 385.52647175 353.06128062 385.52361009 349.91821289 385.51757812 C348.98869812 385.52319763 348.05918335 385.52881714 347.10150146 385.53460693 C341.28790922 385.50623033 337.13602136 385.24718263 332.73828125 381.0871582 C328.92467513 374.731148 331.80470707 367.13185145 333.4465332 360.37792969 C333.70196396 359.29987564 333.95739471 358.22182159 334.2205658 357.11109924 C335.06926605 353.53749269 335.92913011 349.96667082 336.7890625 346.39575195 C337.39115931 343.87052888 337.99256141 341.34514008 338.5933075 338.81959534 C340.02238908 332.81697447 341.45951172 326.81630886 342.89953345 320.81630427 C344.49371775 314.17235079 346.0792095 307.526335 347.66378236 300.8800838 C350.57446249 288.67256536 353.49477578 276.46736726 356.41955757 264.26321983 C358.41462149 255.93647573 360.40331427 247.60823237 362.38818359 239.27905273 C363.15302684 236.07166548 363.91795969 232.8642996 364.68291283 229.65693855 C365.16083406 227.65191053 365.63832142 225.64677903 366.11535072 223.64153862 C366.76345208 220.91747809 367.41315623 218.19380465 368.06323242 215.47021484 C368.25200392 214.67476572 368.44077541 213.8793166 368.63526726 213.05976295 C369.34619499 210.08663077 370.08351338 207.17646182 371.05078125 204.2746582 C370.00633331 204.27880627 370.00633331 204.27880627 368.94078541 204.28303814 C351.99829232 204.34929122 335.05584027 204.39893547 318.11324787 204.43009472 C309.91993368 204.44556361 301.72670596 204.46665353 293.53344727 204.50097656 C286.39219947 204.53087827 279.25101429 204.55023305 272.10970563 204.55692369 C268.32841724 204.56083466 264.54730801 204.57002631 260.76607704 204.59184837 C257.20629001 204.61222581 253.64675579 204.61848953 250.08691597 204.61398125 C248.15911763 204.6151988 246.23134677 204.6313344 244.30361938 204.6479187 C243.15242111 204.64379471 242.00122284 204.63967072 240.81513977 204.63542175 C239.81683797 204.63818713 238.81853617 204.64095251 237.7899828 204.64380169 C233.61111261 204.08064389 230.97959727 202.29635583 228.17578125 199.2121582 C225.24002163 191.54656365 228.95616437 181.65701099 230.81054688 173.98779297 C231.2326368 172.20792747 231.2326368 172.20792747 231.66325378 170.3921051 C232.42915716 167.16828597 233.20079012 163.94594633 233.9751873 160.72416425 C234.7867164 157.34209122 235.5909795 153.95829064 236.39611816 150.57469177 C237.74691436 144.90243779 239.10247343 139.23134038 240.46142578 133.56103516 C242.37819229 125.56315512 244.28580326 117.56311129 246.19184971 109.56267083 C247.51430685 104.01332155 248.8389698 98.46449849 250.16403008 92.91577029 C250.48487668 91.57215357 250.80565818 90.22852129 251.1263752 88.88487363 C252.17913621 84.47466073 253.23444038 80.06506276 254.29101562 75.65576172 C254.69002327 73.98432098 254.69002327 73.98432098 255.09709167 72.27911377 C255.34103165 71.26291458 255.58497162 70.24671539 255.83630371 69.19972229 C256.04793907 68.3158059 256.25957443 67.43188951 256.47762299 66.52118778 C256.92897442 64.75208768 257.47342232 63.00673498 258.05078125 61.2746582 C257.38248291 61.38712891 256.71418457 61.49959961 256.02563477 61.61547852 C250.70833486 62.50638178 245.38926584 63.3834628 240.06530762 64.23377991 C220.90640305 67.29742749 201.91005669 70.6630944 183.05078125 75.2746582 C182.08350098 75.50668945 181.1162207 75.7387207 180.11962891 75.9777832 C157.64314281 81.44042286 135.70458511 88.94946528 113.8069458 96.34649658 C111.17166923 97.23394816 108.53335776 98.11170447 105.89404297 98.98706055 C102.06200536 100.26236087 98.24513177 101.57507707 94.43804932 102.92300415 C93.07037498 103.40201003 91.69857626 103.86942061 90.32269287 104.3243103 C88.44570779 104.94835151 86.58545223 105.62205621 84.7265625 106.2980957 C83.69442627 106.65822754 82.66229004 107.01835937 81.59887695 107.3894043 C75.08651141 112.20769372 74.2528904 125.36646994 72.4765625 132.93481445 C72.1449033 134.33451147 71.81288111 135.73412252 71.48051453 137.13365173 C70.61385166 140.78726997 69.75207016 144.44202205 68.89135742 148.0970459 C68.00933702 151.83859847 67.12262578 155.57903885 66.23632812 159.31958008 C64.50326249 166.63686895 62.77536074 173.95536406 61.05078125 181.2746582 C61.74100435 181.27189282 62.43122746 181.26912745 63.14236641 181.26627827 C79.94334168 181.20000169 96.7442755 181.1503695 113.54535103 181.11922169 C121.67025576 181.10375816 129.79507318 181.0826785 137.91992188 181.04833984 C145.00221563 181.0184217 152.08444614 180.99907946 159.16680133 180.99239272 C162.9162643 180.98848453 166.66554638 180.9793106 170.41495132 180.95746803 C174.60239916 180.93327187 178.78953325 180.93268976 182.97705078 180.93408203 C184.21782883 180.9232962 185.45860687 180.91251038 186.73698425 180.90139771 C197.43183379 180.9399461 197.43183379 180.9399461 202.05078125 184.2746582 C205.42243702 189.33214186 204.53143908 195.20443839 203.61392975 201.06506348 C202.99821006 204.00231237 202.30528231 206.90963665 201.57910156 209.8215332 C201.31552353 210.9214006 201.0519455 212.02126801 200.78038025 213.15446472 C199.90829169 216.78081114 199.01862579 220.402601 198.12890625 224.0246582 C197.50632884 226.5993426 196.8847806 229.17425417 196.2645874 231.74951172 C194.7906861 237.86028024 193.30434645 243.96794902 191.81318831 250.07452679 C190.00375286 257.48654011 188.20827652 264.90191674 186.4140625 272.31762695 C185.77149584 274.9734013 185.12888964 277.62916606 184.48620605 280.28491211 C184.32767324 280.94007813 184.16914042 281.59524414 184.00580359 282.27026367 C183.04799109 286.227177 182.08747082 290.18342191 181.1247859 294.13915253 C177.87299601 307.50177311 174.65974269 320.87176204 171.56054688 334.27075195 C171.28543652 335.45662399 171.01032616 336.64249603 170.72687912 337.86430359 C169.43737642 343.42553186 168.15681088 348.98851208 166.89312744 354.55566406 C166.43919664 356.521973 165.98493181 358.48820487 165.53027344 360.4543457 C165.33689644 361.32324936 165.14351944 362.19215302 164.94428253 363.08738708 C163.04978739 371.20215084 161.07642429 378.65787367 153.83203125 383.3996582 C149.67779147 385.44033739 145.73712469 385.39831276 141.15386963 385.39491272 C140.11356256 385.39619436 140.11356256 385.39619436 139.05223918 385.39750189 C136.72913575 385.39914855 134.40610459 385.39364864 132.08300781 385.38818359 C130.41741436 385.38790152 128.75182079 385.38805985 127.08622742 385.3886261 C122.56387036 385.38891329 118.04153978 385.3830292 113.51918888 385.37605214 C108.79329118 385.36980557 104.06739289 385.36921377 99.3414917 385.36802673 C90.39200412 385.36491727 81.44252873 385.35670905 72.49304652 385.34667724 C62.30451566 385.33550418 52.11598421 385.33000264 41.92744875 385.32498181 C20.96855277 385.31452613 0.00966778 385.29693411 -20.94921875 385.2746582 C-20.94921875 384.6146582 -20.94921875 383.9546582 -20.94921875 383.2746582 C-19.89605469 383.05551758 -18.84289062 382.83637695 -17.7578125 382.6105957 C4.74541219 377.74624105 25.77680285 368.52963006 39.4453125 349.1574707 C43.81769297 341.30633497 46.08562606 332.9055019 48.11938477 324.20654297 C48.39800354 323.04256989 48.67662231 321.8785968 48.96368408 320.67935181 C49.7190765 317.51734366 50.46776432 314.35384097 51.21350598 311.18954587 C52.00045845 307.85814808 52.79645906 304.52891355 53.59153748 301.19944763 C55.09542602 294.89608306 56.59187217 288.59097811 58.08532709 282.28513426 C60.27195721 273.05372474 62.46859622 263.82469625 64.66670895 254.59601498 C64.82886711 253.91518952 64.99102528 253.23436407 65.15809733 252.53290755 C65.48178922 251.17390489 65.80550372 249.81490762 66.12924141 248.45591587 C67.22002601 243.87562726 68.30664319 239.29436569 69.39198303 234.71278381 C69.96514984 232.29923817 70.53834478 229.8856992 71.11157227 227.47216797 C71.36567368 226.39598709 71.61977509 225.31980621 71.88157654 224.21101379 C73.47172811 217.5264963 75.200504 210.89190213 77.05078125 204.2746582 C64.39383459 204.24316528 51.73751457 204.24925513 39.08062649 204.30312443 C33.20323058 204.32696274 27.32640161 204.3379286 21.44897461 204.31933594 C15.7751887 204.3018634 10.10242064 204.31838781 4.42875862 204.35833549 C2.26588763 204.36761881 0.10292841 204.36471934 -2.05990791 204.34935188 C-5.09388743 204.32989044 -8.12466233 204.35401881 -11.15844727 204.38818359 C-12.04965271 204.3723674 -12.94085815 204.35655121 -13.85906982 204.34025574 C-18.75955394 204.44621119 -21.31115613 205.11065954 -24.83067322 208.63084412 C-25.87137259 209.84443432 -26.91090458 211.05902666 -27.94921875 212.2746582 C-29.1595335 213.35858401 -30.38699858 214.42391139 -31.63671875 215.4621582 C-36.8857564 219.98330196 -41.69715474 224.94348757 -46.56103516 229.86987305 C-49.52369141 232.8679603 -52.50599287 235.8435203 -55.52734375 238.7824707 C-60.90023327 244.0453888 -65.9051885 249.39519732 -70.5859375 255.2980957 C-72.2695637 257.41862985 -73.97118665 259.49781906 -75.71875 261.5637207 C-105.97659491 297.70043344 -122.35944541 343.1950647 -118.44140625 390.45043945 C-116.16567149 408.13253729 -109.22237412 423.43648278 -97.94921875 437.2746582 C-97.28535156 438.10223633 -96.62148437 438.92981445 -95.9375 439.7824707 C-89.7809658 447.04285669 -82.60207044 452.69420037 -74.94921875 458.2746582 C-74.37461914 458.6974707 -73.80001953 459.1202832 -73.20800781 459.5559082 C-49.35375157 476.89460666 -21.20829511 486.76834105 7.05078125 494.2746582 C9.68255182 486.95529936 11.50519571 479.51613544 13.2394104 471.94372177 C13.74853395 469.72210696 14.26352229 467.50192206 14.7800293 465.28201294 C16.24590887 458.97690736 17.70101401 452.66932822 19.15332031 446.36108398 C20.04610408 442.48501883 20.94523588 438.61046839 21.84805298 434.73672867 C22.18861446 433.26940499 22.52669232 431.80150242 22.8621521 430.333004 C23.33188126 428.27681861 23.80963725 426.22264414 24.2890625 424.16870117 C24.55759033 423.0033786 24.82611816 421.83805603 25.1027832 420.63742065 C27.21605446 413.14117184 29.86339126 407.66064021 36.89271545 403.65531921 C42.45816103 401.3804734 48.41809963 401.88292982 54.32983398 401.93408203 C55.67075074 401.93492928 57.01166889 401.93445126 58.35258484 401.93275452 C61.97614502 401.93189693 65.59940476 401.9494839 69.22289538 401.97047639 C73.01585522 401.98928297 76.80882263 401.99099676 80.6018219 401.99455261 C87.77692988 402.00386142 94.95190005 402.02845934 102.12694746 402.05860108 C110.29863979 402.09218144 118.47033885 402.10864022 126.64208305 402.12368739 C143.445063 402.15501002 160.24790452 402.20774772 177.05078125 402.2746582 C177.26131134 401.23419342 177.47184143 400.19372864 177.68875122 399.12173462 C180.60126438 384.91980449 183.94433694 370.82708293 187.31664038 356.72839689 C188.12973999 353.32665564 188.93995089 349.92422631 189.7505188 346.5218811 C191.28535803 340.08131731 192.82274903 333.64136555 194.3610841 327.20163596 C196.09063832 319.9608257 197.81713183 312.71928679 199.54344726 305.47770381 C201.66109219 296.59501576 203.779711 287.71255997 205.89962769 278.83041382 C206.3443703 276.96590545 206.3443703 276.96590545 206.79809761 275.06373024 C207.37859098 272.63526513 207.96114531 270.20729161 208.54591179 267.77985191 C209.95833001 261.90904205 211.33575147 256.03405923 212.64459229 250.13922119 C212.90296434 248.99995996 213.1613364 247.86069874 213.42753792 246.68691444 C213.9098604 244.55578436 214.37995458 242.42183118 214.83489799 240.28468895 C216.45320869 233.2165787 218.55424779 227.83309732 224.61328125 223.3996582 C228.23737424 221.7269999 231.37893171 221.15022033 235.35700989 221.13421631 C236.21063614 221.12850616 237.06426239 221.12279602 237.9437561 221.11691284 C239.33635147 221.11523605 239.33635147 221.11523605 240.75708008 221.11352539 C241.74128433 221.10856049 242.72548859 221.10359558 243.73951721 221.09848022 C246.99562275 221.08387473 250.25167958 221.07705934 253.5078125 221.0715332 C255.77219138 221.06578052 258.03657024 221.0600228 260.3009491 221.05426025 C265.04967475 221.04375492 269.7983835 221.03790916 274.54711914 221.03442383 C280.62673236 221.02893947 286.70612158 221.00491052 292.78566456 220.97645187 C297.4637263 220.95781247 302.14173421 220.9526192 306.81982994 220.95108795 C309.06088168 220.94806396 311.30193252 220.94004402 313.54294777 220.92690277 C316.68090404 220.90981507 319.81831469 220.91172935 322.95629883 220.91821289 C323.87862305 220.90899811 324.80094727 220.89978333 325.7512207 220.89028931 C331.28015864 220.92600675 335.15257365 221.65385431 340.05078125 224.2746582 C342.92512463 227.64888739 342.29760315 232.05903047 342.05078125 236.2746582 C341.60735094 239.1346103 340.94050741 241.91874305 340.2409668 244.72583008 C340.04678036 245.53639547 339.85259392 246.34696087 339.65252304 247.18208885 C339.00603866 249.87133318 338.3467435 252.55726577 337.6875 255.2434082 C337.22255888 257.16728907 336.75847301 259.09137679 336.29518127 261.01565552 C335.04566726 266.19624918 333.78538095 271.37416604 332.52302551 276.55164337 C331.21135628 281.93878614 329.90895767 287.32816651 328.60644531 292.7175293 C328.07766831 294.90524318 327.54889023 297.0929568 327.02011108 299.28067017 C326.75701519 300.36928974 326.4939193 301.45790932 326.2228508 302.57951736 C325.41808661 305.90751207 324.61205806 309.23519859 323.80581665 312.56283569 C320.28513235 327.10326509 316.82048203 341.65603209 313.3984375 356.2199707 C312.95736802 358.09427684 312.51622215 359.96856499 312.07499695 361.84283447 C309.57306146 372.47313726 309.57306146 372.47313726 307.08602905 383.10693359 C306.13718112 387.17700978 305.18156052 391.24543682 304.22089958 395.31274033 C303.87336948 396.79015919 303.52848932 398.26820442 303.18652534 399.74692154 C302.72138142 401.75736362 302.24705772 403.76542926 301.77050781 405.77319336 C301.5090094 406.89150543 301.24751099 408.0098175 300.97808838 409.16201782 C299.06011189 415.59998307 296.56887161 419.3795356 291.05078125 423.2746582 C286.98548532 424.88599929 283.56396014 425.52877452 279.20413208 425.5531311 C277.48789391 425.56987633 277.48789391 425.56987633 275.73698425 425.58695984 C274.49620621 425.58912003 273.25542816 425.59128021 271.97705078 425.59350586 C270.6594426 425.60355148 269.34183441 425.61359711 267.98429871 425.62394714 C264.38354144 425.65117908 260.78282315 425.66637626 257.18199015 425.67937517 C253.41432141 425.69503561 249.6467319 425.72181651 245.87911987 425.74740601 C238.75011535 425.79414232 231.62109583 425.83091129 224.49201667 425.86407888 C214.85460317 425.90949427 205.21728787 425.9703481 195.57995605 426.03032684 C180.40361375 426.12437194 165.22724306 426.1978256 150.05078125 426.2746582 C143.78078125 452.6746582 137.51078125 479.0746582 131.05078125 506.2746582 C155.76501358 504.86219732 155.76501358 504.86219732 180.36328125 502.5246582 C181.4152771 502.40160309 181.4152771 502.40160309 182.48852539 502.27606201 C208.60981346 499.19926872 234.48780387 494.45075019 260.05078125 488.2746582 C261.22398926 487.99428711 262.39719727 487.71391602 263.60595703 487.42504883 C342.80035418 468.31970365 420.73422463 436.11694664 524.23071289 374.90283203 C527.75087116 372.6325059 531.05672205 370.63733723 535.05078125 369.2746582 C531.07896282 373.50247274 526.76900541 376.85137298 522.05078125 380.2121582 C520.8747937 381.05423828 520.8747937 381.05423828 519.67504883 381.91333008 C450.2976287 431.25688457 373.08764984 468.28717852 125.05078125 529.2746582 C124.82583984 530.3699585 124.60089844 531.46525879 124.36914062 532.59375 C121.84604613 544.78165727 119.13006498 556.91877649 116.26904297 569.03173828 C115.78501543 571.09074732 115.30628135 573.15100704 114.83251953 575.21240234 C114.13579613 578.24255468 113.42322455 581.26858769 112.70703125 584.29418945 C112.49961304 585.20981155 112.29219482 586.12543365 112.07849121 587.06880188 C110.27053143 594.57237147 107.68912092 599.84909842 101.05078125 604.2746582 C95.71311492 606.56785432 90.80563125 606.56463035 85.1015625 606.54931641 C84.1154599 606.55442734 83.1293573 606.55953827 82.1133728 606.56480408 C78.86328006 606.57867109 75.61340001 606.57774569 72.36328125 606.57543945 C70.09936444 606.57932748 67.83544835 606.58366237 65.5715332 606.58842468 C60.83054233 606.59588032 56.08962593 606.59559998 51.34863281 606.59033203 C45.2756843 606.58453316 39.20304036 606.6014819 33.13014221 606.6246767 C28.45640279 606.63941205 23.7827368 606.64028609 19.10897827 606.63716698 C16.86989742 606.63768012 14.63081245 606.64291647 12.39175415 606.6529789 C9.26096815 606.66532415 6.13077658 606.65856315 3 606.64697266 C2.0772226 606.65461639 1.15444519 606.66226013 0.20370483 606.6701355 C-4.91424975 606.62828651 -8.55336953 606.19723017 -12.94921875 603.2746582 C-16.35774345 598.16187116 -15.39255011 592.80391225 -14.35913086 586.90814209 C-13.52015406 583.0230912 -12.60833087 579.15946033 -11.66796875 575.2980957 C-11.33068844 573.87772382 -10.99440157 572.4571157 -10.65905762 571.0362854 C-9.78116173 567.32846345 -8.88996047 563.62396942 -7.99578857 559.92004395 C-7.08276057 556.1274347 -6.18257524 552.33178104 -5.28125 548.53637695 C-3.51634172 541.11279481 -1.73734208 533.69268687 0.05078125 526.2746582 C-0.82644089 526.10861084 -1.70366302 525.94256348 -2.60746765 525.77148438 C-5.92053194 525.14254632 -9.23293459 524.51031402 -12.54496765 523.87597656 C-13.96755419 523.60418495 -15.39037915 523.33363771 -16.8134613 523.06445312 C-29.04820663 520.74875907 -41.03122363 517.89494834 -52.94921875 514.2746582 C-53.70879883 514.04842773 -54.46837891 513.82219727 -55.25097656 513.58911133 C-93.99408934 501.92051778 -135.43652535 480.5605809 -155.38671875 443.6496582 C-163.34622542 428.2242883 -165.33981473 412.73924427 -165.26171875 395.5246582 C-165.2560791 394.21062012 -165.25043945 392.89658203 -165.24462891 391.54272461 C-165.11973643 381.50557413 -164.40841628 372.00981032 -161.94921875 362.2746582 C-161.75054199 361.48478516 -161.55186523 360.69491211 -161.34716797 359.88110352 C-152.07073167 324.23457303 -131.58573941 294.53341398 -107.06640625 267.61450195 C-105.6590635 266.05915452 -104.26818188 264.48874683 -102.89453125 262.90356445 C-99.18661891 258.62575898 -95.39471958 254.79578756 -91.0703125 251.14575195 C-88.63980408 249.0017123 -86.39956975 246.71970607 -84.13671875 244.3996582 C-79.85326456 240.06364629 -75.33824388 236.20762124 -70.578125 232.4074707 C-68.24601928 230.51545031 -66.03218189 228.55819651 -63.82421875 226.5246582 C-57.50101292 220.82227622 -50.59848476 215.82309907 -43.81054688 210.69458008 C-41.49230061 208.92609631 -39.21377009 207.11126283 -36.94921875 205.2746582 C-37.58947998 205.26007568 -38.22974121 205.24549316 -38.8894043 205.23046875 C-41.80576706 205.15574438 -44.72101562 205.05916528 -47.63671875 204.9621582 C-49.14782227 204.92832031 -49.14782227 204.92832031 -50.68945312 204.89379883 C-57.07247685 204.66207189 -61.03615014 204.08727617 -65.76171875 199.5246582 C-68.95311322 193.47780553 -66.11730002 185.81492714 -64.60107422 179.58422852 C-64.35046234 178.52705627 -64.09985046 177.46988403 -63.84164429 176.38067627 C-63.00733829 172.86955918 -62.16187311 169.36122802 -61.31640625 165.8527832 C-60.72148199 163.35870681 -60.12726811 160.86446087 -59.53372192 158.37005615 C-58.11829416 152.42908963 -56.69591543 146.48982739 -55.27009213 140.55134845 C-53.55111079 133.39036887 -51.84179185 126.22709385 -50.1328125 119.0637207 C-48.28689155 111.32731239 -46.43944008 103.59128592 -44.58441162 95.85705566 C-41.52329352 83.08931287 -38.4821529 70.31747756 -35.4923923 57.5328145 C-34.52994968 53.42003531 -33.56388193 49.3081054 -32.59812319 45.19610381 C-31.83034608 41.92483195 -31.06644756 38.65275492 -30.30743027 35.37943268 C-29.47213686 31.77749695 -28.62784868 28.17777668 -27.78173828 24.57836914 C-27.53824772 23.51655678 -27.29475716 22.45474442 -27.04388809 21.36075592 C-25.08498012 13.08937305 -23.15909102 7.36397981 -15.94921875 2.2746582 C-10.63248405 -0.04285166 -5.69285991 -0.01528385 0 0 Z " fill="#3197CA" transform="translate(254.94921875,37.725341796875)"/>
<path d="M0 0 C1.66618332 0.00084709 3.33236775 0.00036952 4.99855042 -0.00132751 C9.50423036 -0.00218568 14.00966907 0.01541111 18.51529312 0.03639436 C23.23047909 0.05519096 27.94567102 0.05691395 32.66088867 0.06047058 C41.58195755 0.06978229 50.5029157 0.09438423 59.42393589 0.12451905 C69.58352554 0.15809029 79.74312058 0.17455592 89.90275192 0.18960536 C110.79460467 0.22093456 131.68635785 0.27367804 152.578125 0.34057617 C152.248125 1.00057617 151.918125 1.66057617 151.578125 2.34057617 C149.09893498 2.95505026 146.64452003 3.47487553 144.140625 3.96557617 C124.69912853 8.21149151 104.06098015 18.45402448 92.578125 35.34057617 C94.58954698 37.35199816 98.45541593 37.01066504 101.22265625 37.32104492 C102.85214724 37.5134263 104.48153787 37.70665911 106.11083984 37.90063477 C106.97199402 38.00237 107.83314819 38.10410522 108.72039795 38.20892334 C166.46171996 45.11032389 228.67084714 61.41635064 273.578125 100.34057617 C274.43019531 101.07018555 275.28226563 101.79979492 276.16015625 102.55151367 C294.81305932 118.88354862 306.88934047 138.27900207 312.578125 162.34057617 C312.74183594 163.00653809 312.90554688 163.6725 313.07421875 164.35864258 C318.10137739 185.64616661 317.46202782 209.32802918 311.578125 230.34057617 C311.40152344 230.99445313 311.22492187 231.64833008 311.04296875 232.32202148 C304.56793483 255.66811601 291.2601625 277.0752573 275.578125 295.34057617 C274.74796875 296.35249023 273.9178125 297.3644043 273.0625 298.40698242 C262.25983024 311.46249401 250.36482546 323.97902158 236.9921875 334.42260742 C234.5322801 336.37699987 232.25164943 338.44964288 229.953125 340.59057617 C212.72998655 356.23809628 192.78640513 369.282086 173.578125 382.34057617 C172.918125 382.01057617 172.258125 381.68057617 171.578125 381.34057617 C176.87872724 376.42957332 182.17960764 371.60089605 187.828125 367.09057617 C193.20421805 362.7557637 198.2175312 358.09189852 203.23681641 353.35546875 C206.33977057 350.42763652 209.44795334 347.53774602 212.703125 344.77807617 C221.30256591 337.36411617 229.2984414 329.04310702 236.578125 320.34057617 C237.3103125 319.4975293 238.0425 318.65448242 238.796875 317.78588867 C264.92833933 287.27161545 282.95811394 250.36339625 280.578125 209.34057617 C278.43221389 182.68231127 272.87610968 159.24485448 255.578125 138.34057617 C254.93101562 137.54135742 254.28390625 136.74213867 253.6171875 135.91870117 C248.5576478 129.92985826 242.76280445 125.1287151 236.578125 120.34057617 C235.6396875 119.59807617 234.70125 118.85557617 233.734375 118.09057617 C226.05183596 112.14280401 218.00968092 107.12928098 209.578125 102.34057617 C208.95405762 101.97996094 208.32999023 101.6193457 207.68701172 101.24780273 C171.69237122 80.59194562 129.8015119 69.58065214 88.90234375 63.84838867 C85.578125 63.34057617 85.578125 63.34057617 82.578125 62.34057617 C82.35481506 63.43682816 82.13150513 64.53308014 81.90142822 65.66255188 C79.18278685 78.86578134 76.10068201 91.96820995 72.9375 105.07104492 C72.40489735 107.28585792 71.8725328 109.5007282 71.34039307 111.71565247 C69.95528224 117.47813974 68.56699035 123.2398558 67.17797852 129.00140381 C65.75470803 134.90760835 64.33452474 140.81455511 62.9140625 146.72143555 C60.13839586 158.26186746 57.35935981 169.80148502 54.578125 181.34057617 C55.2683481 181.33781079 55.95857121 181.33504541 56.66971016 181.33219624 C73.47068543 181.26591966 90.27161925 181.21628747 107.07269478 181.18513966 C115.19759951 181.16967613 123.32241693 181.14859647 131.44726562 181.11425781 C138.52955938 181.08433967 145.61178989 181.06499743 152.69414508 181.05831069 C156.44360805 181.0544025 160.19289013 181.04522856 163.94229507 181.023386 C168.12974291 180.99918984 172.316877 180.99860773 176.50439453 181 C177.74517258 180.98921417 178.98595062 180.97842834 180.264328 180.96731567 C190.85910917 181.00550338 190.85910917 181.00550338 195.578125 184.34057617 C197.94257845 187.22225381 198.69059413 189.16560465 198.33315849 192.89975548 C197.05807692 200.02643806 195.57245841 207.06991235 193.87939453 214.10864258 C193.61552444 215.22001587 193.35165436 216.33138916 193.07978821 217.47644043 C192.21069165 221.13260281 191.33586091 224.78736669 190.4609375 228.44213867 C189.84201523 231.04039596 189.22340654 233.63872602 188.60519409 236.2371521 C187.13891039 242.3970169 185.66844574 248.55587573 184.19649398 254.71438825 C183.05035672 259.51040234 181.90624416 264.30689516 180.76367188 269.10375977 C180.52548874 270.10370118 180.52548874 270.10370118 180.28249383 271.12384343 C179.64310954 273.80828516 179.00378758 276.49274172 178.36452818 279.17721319 C176.62094027 286.49856255 174.87439251 293.81917914 173.11920166 301.13775635 C170.36900975 312.60948073 167.62690775 324.08231668 164.97132301 335.57640266 C163.89150344 340.24611147 162.8005699 344.91318955 161.70855331 349.58005905 C161.205835 351.74307773 160.70873374 353.90741079 160.2176857 356.07310867 C159.54587536 359.03474427 158.85493333 361.9913071 158.15966797 364.94750977 C157.97105572 365.80366253 157.78244347 366.65981529 157.58811569 367.54191208 C156.02417589 374.05767568 153.58290234 379.14195861 148.015625 383.21557617 C144.38457103 384.89144724 141.24429094 385.46528671 137.25843811 385.47428894 C136.40192154 385.47855392 135.54540497 385.48281891 134.66293335 385.48721313 C133.73139435 385.48675995 132.79985535 385.48630676 131.84008789 385.48583984 C130.85267105 385.48919846 129.86525421 385.49255707 128.84791565 385.49601746 C125.58219141 385.50552042 122.31651846 385.50747017 119.05078125 385.50854492 C116.78161091 385.51175767 114.51244078 385.51512175 112.24327087 385.51863098 C107.48615031 385.52462041 102.7290479 385.52647104 97.97192383 385.52587891 C91.87422757 385.52577723 85.7766476 385.53943612 79.67897892 385.55665112 C74.9924211 385.56776482 70.30589147 385.56979832 65.61932182 385.56926918 C63.37104326 385.57044999 61.12276398 385.5748774 58.87449837 385.58260155 C55.73143465 385.59238972 52.58862437 385.58952805 49.44555664 385.58349609 C48.51604187 385.5891156 47.5865271 385.59473511 46.62884521 385.6005249 C40.81525297 385.5721483 36.66336511 385.3131006 32.265625 381.15307617 C28.45201888 374.79706597 31.33205082 367.19776942 32.97387695 360.44384766 C33.22930771 359.36579361 33.48473846 358.28773956 33.74790955 357.17701721 C34.5966098 353.60341066 35.45647386 350.03258879 36.31640625 346.46166992 C36.91850306 343.93644685 37.51990516 341.41105805 38.12065125 338.88551331 C39.54973283 332.88289243 40.98685547 326.88222683 42.4268772 320.88222224 C44.0210615 314.23826876 45.60655325 307.59225297 47.19112611 300.94600177 C50.10180624 288.73848333 53.02211953 276.53328523 55.94690132 264.3291378 C57.94196524 256.0023937 59.93065802 247.67415034 61.91552734 239.3449707 C62.68037059 236.13758345 63.44530344 232.93021757 64.21025658 229.72285652 C64.68817781 227.7178285 65.16566517 225.712697 65.64269447 223.70745659 C66.29079583 220.98339606 66.94049998 218.25972262 67.59057617 215.53613281 C67.77934767 214.74068369 67.96811916 213.94523457 68.16261101 213.12568092 C68.87353874 210.15254874 69.61085713 207.24237979 70.578125 204.34057617 C69.53367706 204.34472424 69.53367706 204.34472424 68.46812916 204.34895611 C51.52563607 204.41520919 34.58318402 204.46485344 17.64059162 204.49601269 C9.44727743 204.51148158 1.25404971 204.5325715 -6.93920898 204.56689453 C-14.08045678 204.59679624 -21.22164196 204.61615101 -28.36295062 204.62284166 C-32.14423901 204.62675262 -35.92534824 204.63594428 -39.70657921 204.65776634 C-43.26636624 204.67814378 -46.82590046 204.6844075 -50.38574028 204.67989922 C-52.31353862 204.68111676 -54.24130948 204.69725237 -56.16903687 204.71383667 C-57.32023514 204.70971268 -58.47143341 204.70558868 -59.65751648 204.70133972 C-60.65581828 204.7041051 -61.65412008 204.70687048 -62.68267345 204.70971966 C-66.86154364 204.14656186 -69.49305898 202.3622738 -72.296875 199.27807617 C-75.23263462 191.61248162 -71.51649188 181.72292895 -69.66210938 174.05371094 C-69.38071609 172.86713394 -69.09932281 171.68055695 -68.80940247 170.45802307 C-68.04349909 167.23420394 -67.27186613 164.0118643 -66.49746895 160.79008222 C-65.68593985 157.40800919 -64.88167675 154.02420861 -64.07653809 150.64060974 C-62.72574189 144.96835576 -61.37018282 139.29725834 -60.01123047 133.62695312 C-58.09446396 125.62907309 -56.18685299 117.62902926 -54.28080654 109.6285888 C-52.9583494 104.07923952 -51.63368645 98.53041646 -50.30862617 92.98168826 C-49.98777957 91.63807154 -49.66699807 90.29443926 -49.34628105 88.9507916 C-48.29352004 84.5405787 -47.23821587 80.13098073 -46.18164062 75.72167969 C-45.78263298 74.05023895 -45.78263298 74.05023895 -45.37556458 72.34503174 C-45.1316246 71.32883255 -44.88768463 70.31263336 -44.63635254 69.26564026 C-44.42471718 68.38172387 -44.21308182 67.49780748 -43.99503326 66.58710575 C-43.54368183 64.81800565 -42.99923393 63.07265295 -42.421875 61.34057617 C-43.42432251 61.50928223 -43.42432251 61.50928223 -44.44702148 61.68139648 C-49.76432139 62.57229975 -55.08339041 63.44938077 -60.40734863 64.29969788 C-79.5662532 67.36334546 -98.56259956 70.72901237 -117.421875 75.34057617 C-118.38915527 75.57260742 -119.35643555 75.80463867 -120.35302734 76.04370117 C-153.00817979 83.98014328 -184.98019835 95.41525868 -216.40771484 107.22827148 C-219.92267443 108.52538439 -223.46221686 109.73247391 -227.01342773 110.92578125 C-236.85234485 114.23818596 -246.41429476 118.14176363 -255.984375 122.15307617 C-256.68029755 122.44406189 -257.37622009 122.73504761 -258.0932312 123.03485107 C-260.08096872 123.86804715 -262.06635755 124.70655316 -264.05078125 125.54760742 C-265.20650635 126.03720947 -266.36223145 126.52681152 -267.55297852 127.03125 C-270.53123811 128.29852856 -270.53123811 128.29852856 -273.421875 130.34057617 C-275.609375 129.96557617 -275.609375 129.96557617 -277.421875 129.34057617 C-259.49762883 119.19297656 -241.40378108 109.73152709 -222.77148438 100.94897461 C-219.31649561 99.28997563 -215.90314821 97.56096454 -212.48828125 95.82104492 C-205.39659188 92.26119281 -198.15699883 89.17183757 -190.796875 86.21557617 C-190.12189972 85.9428891 -189.44692444 85.67020203 -188.75149536 85.38925171 C-171.8167533 78.56050095 -154.674516 72.3156598 -137.421875 66.34057617 C-136.74811829 66.10683289 -136.07436157 65.8730896 -135.38018799 65.63226318 C-65.15646387 41.34057617 -65.15646387 41.34057617 -37.421875 41.34057617 C-37.05835938 39.50946289 -37.05835938 39.50946289 -36.6875 37.64135742 C-30.8895129 8.92626345 -30.8895129 8.92626345 -24.421875 3.34057617 C-16.66518517 -0.67191089 -8.51228836 -0.06064569 0 0 Z " fill="#E18B3D" transform="translate(555.421875,37.659423828125)"/>
<path d="M0 0 C1.28043938 -0.00856522 1.28043938 -0.00856522 2.58674622 -0.01730347 C3.97934158 -0.01898026 3.97934158 -0.01898026 5.40007019 -0.02069092 C6.38427444 -0.02565582 7.3684787 -0.03062073 8.38250732 -0.03573608 C11.63861287 -0.05034157 14.89466969 -0.05715697 18.15080261 -0.06268311 C20.41518149 -0.06843579 22.67956036 -0.07419351 24.94393921 -0.07995605 C29.69266486 -0.09046139 34.44137361 -0.09630715 39.19010925 -0.09979248 C45.26972247 -0.10527684 51.34911169 -0.12930579 57.42865467 -0.15776443 C62.10671641 -0.17640384 66.78472432 -0.18159711 71.46282005 -0.18312836 C73.70387179 -0.18615235 75.94492263 -0.19417229 78.18593788 -0.20731354 C81.32389415 -0.22440124 84.4613048 -0.22248696 87.59928894 -0.21600342 C88.52161316 -0.2252182 89.44393738 -0.23443298 90.39421082 -0.243927 C95.92314875 -0.20820956 99.79556376 0.51963801 104.69377136 3.14044189 C107.56811474 6.51467108 106.94059326 10.92481416 106.69377136 15.14044189 C106.25034106 18.000394 105.58349752 20.78452674 104.88395691 23.59161377 C104.59267725 24.80746186 104.59267725 24.80746186 104.29551315 26.04787254 C103.64902878 28.73711687 102.98973361 31.42304947 102.33049011 34.10919189 C101.865549 36.03307276 101.40146312 37.95716049 100.93817139 39.88143921 C99.68865737 45.06203287 98.42837106 50.23994973 97.16601562 55.41742706 C95.8543464 60.80456983 94.55194778 66.1939502 93.24943542 71.58331299 C92.72065842 73.77102687 92.19188034 75.95874049 91.6631012 78.14645386 C91.4000053 79.23507343 91.13690941 80.32369301 90.86584091 81.44530106 C90.06107673 84.77329576 89.25504818 88.10098228 88.44880676 91.42861938 C84.92812247 105.96904878 81.46347215 120.52181578 78.04142761 135.08575439 C77.60035814 136.96006053 77.15921226 138.83434868 76.71798706 140.70861816 C74.21605157 151.33892095 74.21605157 151.33892095 71.72901917 161.97271729 C70.78017124 166.04279347 69.82455063 170.11122051 68.86388969 174.17852402 C68.51635959 175.65594288 68.17147943 177.13398811 67.82951546 178.61270523 C67.36437154 180.62314731 66.89004783 182.63121296 66.41349792 184.63897705 C66.15199951 185.75728912 65.8905011 186.8756012 65.62107849 188.02780151 C63.703102 194.46576676 61.21186172 198.24531929 55.69377136 202.14044189 C51.62847544 203.75178298 48.20695025 204.39455821 43.84712219 204.41891479 C42.70296341 204.43007828 41.55880463 204.44124176 40.37997437 204.45274353 C39.13919632 204.45490372 37.89841827 204.4570639 36.62004089 204.45928955 C34.64362862 204.47435799 34.64362862 204.47435799 32.62728882 204.48973083 C29.02653155 204.51696277 25.42581326 204.53215995 21.82498026 204.54515886 C18.05731152 204.5608193 14.28972202 204.5876002 10.52210999 204.6131897 C3.39310546 204.65992601 -3.73591406 204.69669498 -10.86499321 204.72986257 C-20.50240672 204.77527796 -30.13972202 204.83613179 -39.77705383 204.89611053 C-54.95339614 204.99015563 -70.12976683 205.06360929 -85.30622864 205.14044189 C-91.57622864 231.54044189 -97.84622864 257.94044189 -104.30622864 285.14044189 C-79.5919963 283.72798101 -79.5919963 283.72798101 -54.99372864 281.39044189 C-53.94173279 281.26738678 -53.94173279 281.26738678 -52.8684845 281.1418457 C-26.74719642 278.06505241 -0.86920601 273.31653388 24.69377136 267.14044189 C25.86697937 266.8600708 27.04018738 266.57969971 28.24894714 266.29083252 C107.44334429 247.18548734 185.37721474 214.98273034 288.873703 153.76861572 C292.39386127 151.49828959 295.69971216 149.50312092 299.69377136 148.14044189 C295.72195293 152.36825643 291.41199552 155.71715667 286.69377136 159.07794189 C285.90977966 159.63932861 285.12578796 160.20071533 284.31803894 160.77911377 C214.94061881 210.12266826 137.73063995 247.15296221 -110.30622864 308.14044189 C-110.53117004 309.23574219 -110.75611145 310.33104248 -110.98786926 311.45953369 C-113.51096376 323.64744096 -116.22694491 335.78456019 -119.08796692 347.89752197 C-119.57199445 349.95653101 -120.05072854 352.01679073 -120.52449036 354.07818604 C-121.22121376 357.10833837 -121.93378533 360.13437138 -122.64997864 363.15997314 C-122.85739685 364.07559525 -123.06481506 364.99121735 -123.27851868 365.93458557 C-125.08647845 373.43815516 -127.66788897 378.71488211 -134.30622864 383.14044189 C-139.64389497 385.43363801 -144.55137864 385.43041404 -150.25544739 385.4151001 C-151.73460129 385.42276649 -151.73460129 385.42276649 -153.24363708 385.43058777 C-156.49372983 385.44445478 -159.74360988 385.44352938 -162.99372864 385.44122314 C-165.25764545 385.44511117 -167.52156154 385.44944607 -169.78547668 385.45420837 C-174.52646756 385.46166401 -179.26738395 385.46138368 -184.00837708 385.45611572 C-190.08132558 385.45031685 -196.15396953 385.46726559 -202.22686768 385.4904604 C-206.90060709 385.50519574 -211.57427308 385.50606978 -216.24803162 385.50295067 C-218.48711247 385.50346381 -220.72619744 385.50870016 -222.96525574 385.51876259 C-226.09604174 385.53110784 -229.2262333 385.52434684 -232.35700989 385.51275635 C-233.27978729 385.52040009 -234.2025647 385.52804382 -235.15330505 385.53591919 C-240.27125964 385.4940702 -243.91037942 385.06301386 -248.30622864 382.14044189 C-251.69523374 377.05693424 -250.75833673 371.71845868 -249.72987366 365.85394287 C-248.9105431 362.08503533 -248.01784476 358.33812341 -247.09529114 354.59356689 C-246.76286618 353.20997641 -246.43137071 351.82616231 -246.10075378 350.44213867 C-245.40977156 347.55944296 -244.71161374 344.67862498 -244.00740051 341.7991333 C-243.10787382 338.1209212 -242.22051763 334.43991795 -241.33776283 330.75764847 C-240.4899711 327.22285335 -239.63682461 323.68935835 -238.78279114 320.15606689 C-238.62202717 319.48961403 -238.4612632 318.82316116 -238.29562759 318.13651276 C-237.83672384 316.23900811 -237.37355928 314.34253547 -236.91023254 312.44610596 C-236.64820038 311.37040344 -236.38616821 310.29470093 -236.11619568 309.18640137 C-235.30103489 306.1209103 -234.32764541 303.14262447 -233.30622864 300.14044189 C-232.87482926 298.46442313 -232.46792526 296.78188105 -232.08747864 295.09356689 C-231.87736145 294.16544189 -231.66724426 293.23731689 -231.45075989 292.28106689 C-231.13171692 290.85020752 -231.13171692 290.85020752 -230.80622864 289.39044189 C-230.59353333 288.45200439 -230.38083801 287.51356689 -230.16169739 286.54669189 C-229.20877589 282.31408351 -228.29453457 278.08093266 -227.46809387 273.82183838 C-225.98875575 266.39502571 -224.2276528 259.03143054 -222.49763489 251.65997314 C-222.31565992 250.88353643 -222.13368496 250.10709972 -221.9461956 249.30713463 C-220.98507989 245.20724322 -220.02186416 241.10785172 -219.05696106 237.0088501 C-218.06523449 232.79391024 -217.08107839 228.57723997 -216.09857273 224.36014271 C-215.33671855 221.09651004 -214.56916109 217.83423767 -213.80007744 214.57230186 C-213.43475166 213.01837921 -213.07156251 211.46395252 -212.71061897 209.90900612 C-212.20499623 207.73313194 -211.69126168 205.55932012 -211.1756134 203.38580322 C-210.88630447 202.15243729 -210.59699554 200.91907135 -210.29891968 199.64833069 C-208.161636 192.09577592 -205.55841046 186.5633424 -198.46429443 182.52110291 C-192.89884886 180.24625709 -186.93891026 180.74871351 -181.0271759 180.79986572 C-179.68625915 180.80071297 -178.345341 180.80023495 -177.00442505 180.79853821 C-173.38086486 180.79768062 -169.75760513 180.81526759 -166.1341145 180.83626008 C-162.34115467 180.85506666 -158.54818726 180.85678045 -154.75518799 180.8603363 C-147.58008001 180.86964512 -140.40510984 180.89424303 -133.23006243 180.92438477 C-125.05837009 180.95796513 -116.88667104 180.97442391 -108.71492684 180.98947108 C-91.91194688 181.02079371 -75.10910537 181.07353141 -58.30622864 181.14044189 C-58.09569855 180.09997711 -57.88516846 179.05951233 -57.66825867 177.98751831 C-54.75574551 163.78558819 -51.41267295 149.69286662 -48.04036951 135.59418058 C-47.2272699 132.19243934 -46.417059 128.79001001 -45.60649109 125.38766479 C-44.07165186 118.947101 -42.53426086 112.50714924 -40.99592578 106.06741965 C-39.26637157 98.8266094 -37.53987806 91.58507048 -35.81356263 84.3434875 C-33.6959177 75.46079945 -31.57729888 66.57834366 -29.4573822 57.69619751 C-29.01263959 55.83168914 -29.01263959 55.83168914 -28.55891228 53.92951393 C-27.97841891 51.50104883 -27.39586458 49.0730753 -26.8110981 46.6456356 C-25.39867988 40.77482574 -24.02125841 34.89984292 -22.7124176 29.00500488 C-22.45404554 27.86574366 -22.19567348 26.72648243 -21.92947197 25.55269814 C-21.44714949 23.42156805 -20.9770553 21.28761487 -20.52211189 19.15047264 C-18.9038012 12.08236239 -16.8027621 6.69888101 -10.74372864 2.26544189 C-7.11963564 0.59278359 -3.97807817 0.01600402 0 0 Z " fill="#77B649" transform="translate(490.3062286376953,258.85955810546875)"/>
<path d="M0 0 C0.66 0.33 1.32 0.66 2 1 C-46.86845777 39.70239174 -103.03773711 70.06091659 -160 95 C-160.97966736 95.42892548 -160.97966736 95.42892548 -161.97912598 95.86651611 C-236.75416716 128.52042862 -315.96177305 151.82126614 -408 160 C-408.495 160.99 -408.495 160.99 -409 162 C-408.16368696 156.29000061 -406.79281639 150.72849298 -405.4375 145.125 C-405.20353516 144.15046875 -404.96957031 143.1759375 -404.72851562 142.171875 C-404.15418868 139.78079957 -403.57796555 137.39019804 -403 135 C-402.67 135.66 -402.34 136.32 -402 137 C-358.39029276 134.80096587 -315.48367268 129.2641827 -273 119 C-271.82679199 118.71962891 -270.65358398 118.43925781 -269.44482422 118.15039062 C-190.25014912 99.04497839 -112.3170536 66.84187358 0 0 Z " fill="#3F9ECD" transform="translate(788,407)"/>
<path d="M0 0 C0.66 0.33 1.32 0.66 2 1 C-5.62349144 7.03758263 -13.41585532 12.78775671 -21.375 18.375 C-22.21836914 18.96941895 -23.06173828 19.56383789 -23.93066406 20.17626953 C-28.50712782 23.37001462 -33.10376349 26.32092719 -38 29 C-38.0625 26.35546875 -38.0625 26.35546875 -37 23 C-34.2647983 20.65588137 -31.15422944 19.03080569 -28 17.3125 C-26.1779556 16.27647746 -24.35767391 15.23734945 -22.5390625 14.1953125 C-21.15509277 13.40882324 -21.15509277 13.40882324 -19.74316406 12.60644531 C-14.7610846 9.68885161 -9.9808477 6.4584787 -5.20703125 3.21411133 C-3.50858224 2.08465105 -1.75858907 1.03333153 0 0 Z " fill="#8FC6E2" transform="translate(788,407)"/>
<path d="M0 0 C0.66 0.33 1.32 0.66 2 1 C1.57589844 1.40839111 1.15179687 1.81678223 0.71484375 2.23754883 C-1.19788879 4.08801246 -3.09897746 5.9500117 -5 7.8125 C-5.66773438 8.45509766 -6.33546875 9.09769531 -7.0234375 9.75976562 C-7.65507813 10.38173828 -8.28671875 11.00371094 -8.9375 11.64453125 C-9.52402344 12.21534424 -10.11054687 12.78615723 -10.71484375 13.37426758 C-12.31007227 15.0468522 -12.31007227 15.0468522 -12 18 C-13.46533203 19.37866211 -13.46533203 19.37866211 -15.5078125 20.77734375 C-16.24773438 21.29103516 -16.98765625 21.80472656 -17.75 22.33398438 C-18.925625 23.12772461 -18.925625 23.12772461 -20.125 23.9375 C-20.88554688 24.46279297 -21.64609375 24.98808594 -22.4296875 25.52929688 C-26.59113496 28.39567318 -30.78840387 31.20796742 -35 34 C-35.66 33.67 -36.32 33.34 -37 33 C-31.69939776 28.08899715 -26.39851736 23.26031988 -20.75 18.75 C-13.47874467 12.89289302 -6.76974632 6.42257984 0 0 Z " fill="#ECB481" transform="translate(764,386)"/>
<path d="M0 0 C-4.29975855 4.87305969 -9.37224317 7.8200442 -15 11 C-15.125 8.375 -15.125 8.375 -14 5 C-5.35324711 -2.10885492 -5.35324711 -2.10885492 0 0 Z " fill="#75B9DC" transform="translate(765,425)"/>
<path d="M0 0 C0.66 0.33 1.32 0.66 2 1 C-6.91 9.91 -15.82 18.82 -25 28 C-25.66 27.67 -26.32 27.34 -27 27 C-22.30540267 21.59903965 -17.60414702 16.48356931 -12.12890625 11.87109375 C-7.8776944 8.13470756 -3.9636369 4.03673676 0 0 Z " fill="#7CBDDD" transform="translate(176,277)"/>
<path d="M0 0 C2 1 2 1 3 3 C-0.96 5.64 -4.92 8.28 -9 11 C-9.66 10.67 -10.32 10.34 -11 10 C-5.555 5.05 -5.555 5.05 0 0 Z " fill="#F4D2B3" transform="translate(738,409)"/>
<path d="M0 0 C0.66 0.33 1.32 0.66 2 1 C2 1.66 2 2.32 2 3 C0.42466914 3.86883706 -1.16064509 4.71959068 -2.75 5.5625 C-3.63171875 6.03816406 -4.5134375 6.51382813 -5.421875 7.00390625 C-8.20701188 8.07998186 -9.26980214 8.06528748 -12 7 C-10.04754815 5.80285445 -8.08785003 4.61751926 -6.125 3.4375 C-5.03445313 2.77621094 -3.94390625 2.11492187 -2.8203125 1.43359375 C-1.88960938 0.96050781 -0.95890625 0.48742187 0 0 Z " fill="#CA935B" transform="translate(290,160)"/>
<path d="M0 0 C0.66 0.33 1.32 0.66 2 1 C-1.3 3.64 -4.6 6.28 -8 9 C-8.99 8.34 -9.98 7.68 -11 7 C-9.21475351 5.80286983 -7.4215972 4.61752721 -5.625 3.4375 C-4.62726562 2.77621094 -3.62953125 2.11492187 -2.6015625 1.43359375 C-1.74304688 0.96050781 -0.88453125 0.48742187 0 0 Z " fill="#C8E4F2" transform="translate(788,407)"/>
<path d="M0 0 C0.66 0.33 1.32 0.66 2 1 C1.2575 1.6496875 1.2575 1.6496875 0.5 2.3125 C-1.33218192 3.99740483 -1.33218192 3.99740483 -1 7 C-2.65 7.33 -4.3 7.66 -6 8 C-4.26440562 4.942048 -2.61527381 2.36620011 0 0 Z " fill="#EEBC8E" transform="translate(745,403)"/>
<path d="M0 0 C0.66 0.33 1.32 0.66 2 1 C-0.64 3.64 -3.28 6.28 -6 9 C-6.33 8.34 -6.66 7.68 -7 7 C-2.25 1.125 -2.25 1.125 0 0 Z " fill="#EDB481" transform="translate(533,40)"/>
<path d="M0 0 C0.66 0.33 1.32 0.66 2 1 C0.88121617 2.17262904 -0.24523051 3.33795138 -1.375 4.5 C-2.00148437 5.1496875 -2.62796875 5.799375 -3.2734375 6.46875 C-5 8 -5 8 -7 8 C-5.50902342 4.2047869 -3.24299151 2.38957269 0 0 Z " fill="#78BBDC" transform="translate(239,40)"/>
<path d="M0 0 C0.66 0.33 1.32 0.66 2 1 C-0.64 3.64 -3.28 6.28 -6 9 C-6 6 -6 6 -3.5625 3.375 C-2.716875 2.59125 -1.87125 1.8075 -1 1 C-0.67 0.67 -0.34 0.34 0 0 Z " fill="#B0D597" transform="translate(480,261)"/>
<path d="M0 0 C0.66 0.33 1.32 0.66 2 1 C-0.64 3.64 -3.28 6.28 -6 9 C-6 6 -6 6 -3.5625 3.375 C-2.716875 2.59125 -1.87125 1.8075 -1 1 C-0.67 0.67 -0.34 0.34 0 0 Z " fill="#B4D79C" transform="translate(290,442)"/>
</svg>
